<?xml version="1.0" encoding="UTF-8" standalone="no"?>
<svg width="456" height="456" viewBox="0 0 456 456" version="1.1" xmlns="http://www.w3.org/2000/svg">
    <defs>
        <!-- Ana gradient -->
        <linearGradient id="mainGradient" x1="0%" y1="0%" x2="100%" y2="100%">
            <stop offset="0%" style="stop-color:#6366F1;stop-opacity:1" />
            <stop offset="100%" style="stop-color:#8B5CF6;stop-opacity:1" />
        </linearGradient>
        
        <!-- Klasör gradient -->
        <linearGradient id="folderGrad" x1="0%" y1="0%" x2="0%" y2="100%">
            <stop offset="0%" style="stop-color:#FCD34D;stop-opacity:1" />
            <stop offset="100%" style="stop-color:#F59E0B;stop-opacity:1" />
        </linearGradient>
        
        <!-- Belge gradient -->
        <linearGradient id="docGrad" x1="0%" y1="0%" x2="0%" y2="100%">
            <stop offset="0%" style="stop-color:#FFFFFF;stop-opacity:1" />
            <stop offset="100%" style="stop-color:#F3F4F6;stop-opacity:1" />
        </linearGradient>
        
        <!-- Soft shadow -->
        <filter id="softShadow">
            <feGaussianBlur in="SourceAlpha" stdDeviation="3"/>
            <feOffset dx="0" dy="4" result="offsetblur"/>
            <feFlood flood-color="#000000" flood-opacity="0.15"/>
            <feComposite in2="offsetblur" operator="in"/>
            <feMerge>
                <feMergeNode/>
                <feMergeNode in="SourceGraphic"/>
            </feMerge>
        </filter>
        
        <!-- Glow effect -->
        <filter id="glow">
            <feGaussianBlur stdDeviation="4" result="coloredBlur"/>
            <feMerge>
                <feMergeNode in="coloredBlur"/>
                <feMergeNode in="SourceGraphic"/>
            </feMerge>
        </filter>
    </defs>
    
    <!-- Arka plan -->
    <rect width="456" height="456" fill="url(#mainGradient)"/>
    
    <!-- Dekoratif daireler -->
    <circle cx="100" cy="80" r="60" fill="#FFFFFF" opacity="0.05"/>
    <circle cx="400" cy="100" r="40" fill="#FFFFFF" opacity="0.05"/>
    <circle cx="80" cy="380" r="50" fill="#FFFFFF" opacity="0.05"/>
    <circle cx="380" cy="360" r="70" fill="#FFFFFF" opacity="0.05"/>
    
    <!-- Ana ikon grubu -->
    <g transform="translate(228, 180)">
        <!-- Klasör -->
        <g filter="url(#softShadow)">
            <!-- Klasör gövdesi -->
            <path d="M -60 -20 
                     L -60 50 
                     Q -60 60 -50 60 
                     L 50 60 
                     Q 60 60 60 50 
                     L 60 -20 
                     Q 60 -30 50 -30 
                     L -10 -30 
                     L -20 -20 
                     Z" 
                  fill="url(#folderGrad)"/>
            
            <!-- Klasör tab -->
            <path d="M -60 -20 
                     L -20 -20 
                     L -10 -30 
                     L -40 -30 
                     Q -50 -30 -50 -40 
                     L -50 -35 
                     Q -50 -30 -55 -25 
                     Z" 
                  fill="#FCD34D"/>
        </g>
        
        <!-- Belgeler -->
        <g transform="translate(0, 5)">
            <!-- Belge 1 -->
            <g transform="translate(-25, -5) rotate(-5)" filter="url(#softShadow)">
                <rect x="-15" y="-20" width="30" height="40" rx="3" fill="url(#docGrad)"/>
                <rect x="-10" y="-15" width="20" height="3" rx="1" fill="#E5E7EB"/>
                <rect x="-10" y="-8" width="15" height="2" rx="1" fill="#E5E7EB"/>
                <rect x="-10" y="-2" width="18" height="2" rx="1" fill="#E5E7EB"/>
                <rect x="-10" y="4" width="12" height="2" rx="1" fill="#E5E7EB"/>
            </g>
            
            <!-- Belge 2 -->
            <g transform="translate(0, 0)" filter="url(#softShadow)">
                <rect x="-15" y="-20" width="30" height="40" rx="3" fill="url(#docGrad)"/>
                <rect x="-10" y="-15" width="20" height="3" rx="1" fill="#3B82F6"/>
                <rect x="-10" y="-8" width="15" height="2" rx="1" fill="#E5E7EB"/>
                <rect x="-10" y="-2" width="18" height="2" rx="1" fill="#E5E7EB"/>
                <rect x="-10" y="4" width="12" height="2" rx="1" fill="#E5E7EB"/>
            </g>
            
            <!-- Belge 3 -->
            <g transform="translate(25, -5) rotate(5)" filter="url(#softShadow)">
                <rect x="-15" y="-20" width="30" height="40" rx="3" fill="url(#docGrad)"/>
                <rect x="-10" y="-15" width="20" height="3" rx="1" fill="#10B981"/>
                <rect x="-10" y="-8" width="15" height="2" rx="1" fill="#E5E7EB"/>
                <rect x="-10" y="-2" width="18" height="2" rx="1" fill="#E5E7EB"/>
                <rect x="-10" y="4" width="12" height="2" rx="1" fill="#E5E7EB"/>
            </g>
        </g>
    </g>
    
    <!-- Logo metni -->
    <g transform="translate(228, 280)">
        <text x="0" y="0" 
              font-family="Arial, Helvetica, sans-serif" 
              font-size="42" 
              font-weight="bold" 
              fill="#FFFFFF" 
              text-anchor="middle"
              filter="url(#glow)">ARSİVİM</text>
    </g>
    
    <!-- Alt başlık -->
    <text x="228" y="310" 
          font-family="Arial, Helvetica, sans-serif" 
          font-size="14" 
          fill="#FFFFFF" 
          text-anchor="middle" 
          opacity="0.8">Dijital Belge Arşiv Sistemi</text>
    
    <!-- Yükleme animasyonu -->
    <g transform="translate(228, 360)">
        <rect x="-40" y="-2" width="80" height="4" rx="2" fill="#FFFFFF" opacity="0.2"/>
        <rect x="-40" y="-2" width="80" height="4" rx="2" fill="#FFFFFF">
            <animate attributeName="width" 
                     values="0;80" 
                     dur="2s" 
                     repeatCount="indefinite"/>
        </rect>
    </g>
    
    <!-- Dekoratif elementler -->
    <g opacity="0.1">
        <path d="M 50 200 Q 100 150 150 200" 
              stroke="#FFFFFF" 
              stroke-width="2" 
              fill="none"/>
        <path d="M 306 250 Q 356 200 406 250" 
              stroke="#FFFFFF" 
              stroke-width="2" 
              fill="none"/>
    </g>
</svg>