<?xml version="1.0" encoding="UTF-8" standalone="no"?>
<svg width="456" height="456" viewBox="0 0 456 456" version="1.1" xmlns="http://www.w3.org/2000/svg">
    <defs>
        <!-- Ana gradient -->
        <linearGradient id="bgGradient" x1="0%" y1="0%" x2="100%" y2="100%">
            <stop offset="0%" style="stop-color:#6366F1;stop-opacity:1" />
            <stop offset="100%" style="stop-color:#8B5CF6;stop-opacity:1" />
        </linearGradient>
        
        <!-- Klasör gradient -->
        <linearGradient id="folderGradient" x1="0%" y1="0%" x2="0%" y2="100%">
            <stop offset="0%" style="stop-color:#FCD34D;stop-opacity:1" />
            <stop offset="100%" style="stop-color:#F59E0B;stop-opacity:1" />
        </linearGradient>
        
        <!-- İç shadow -->
        <filter id="innerShadow">
            <feGaussianBlur in="SourceAlpha" stdDeviation="3"/>
            <feOffset dx="0" dy="2" result="offsetblur"/>
            <feFlood flood-color="#000000" flood-opacity="0.2"/>
            <feComposite in2="offsetblur" operator="in"/>
            <feMerge>
                <feMergeNode/>
                <feMergeNode in="SourceGraphic"/>
            </feMerge>
        </filter>
    </defs>
    
    <!-- Arka plan -->
    <rect width="456" height="456" rx="100" fill="url(#bgGradient)"/>
    
    <!-- İç çerçeve -->
    <rect x="40" y="40" width="376" height="376" rx="80" fill="none" stroke="#FFFFFF" stroke-width="2" opacity="0.2"/>
    
    <!-- Ana klasör ikonu -->
    <g transform="translate(228, 228)">
        <!-- Klasör gövdesi -->
        <g filter="url(#innerShadow)">
            <path d="M -100 -50 
                     L -100 70 
                     Q -100 90 -80 90 
                     L 80 90 
                     Q 100 90 100 70 
                     L 100 -50 
                     Q 100 -70 80 -70 
                     L -20 -70 
                     L -35 -50 
                     Z" 
                  fill="url(#folderGradient)"/>
            
            <!-- Klasör tab detayı -->
            <path d="M -100 -50 
                     L -35 -50 
                     L -20 -70 
                     L -70 -70 
                     Q -85 -70 -85 -85 
                     L -85 -75 
                     Q -85 -65 -92.5 -57.5 
                     Z" 
                  fill="#FCD34D"/>
        </g>
        
        <!-- Belge ikonları -->
        <g>
            <!-- Sol belge -->
            <rect x="-50" y="-10" width="35" height="45" rx="4" fill="#FFFFFF" opacity="0.9"/>
            <rect x="-45" y="-5" width="25" height="4" rx="2" fill="#3B82F6"/>
            <rect x="-45" y="4" width="20" height="2" rx="1" fill="#E5E7EB"/>
            <rect x="-45" y="10" width="23" height="2" rx="1" fill="#E5E7EB"/>
            <rect x="-45" y="16" width="18" height="2" rx="1" fill="#E5E7EB"/>
            
            <!-- Orta belge -->
            <rect x="-7.5" y="-15" width="35" height="45" rx="4" fill="#FFFFFF" opacity="0.95"/>
            <rect x="-2.5" y="-10" width="25" height="4" rx="2" fill="#10B981"/>
            <rect x="-2.5" y="-1" width="20" height="2" rx="1" fill="#E5E7EB"/>
            <rect x="-2.5" y="5" width="23" height="2" rx="1" fill="#E5E7EB"/>
            <rect x="-2.5" y="11" width="18" height="2" rx="1" fill="#E5E7EB"/>
            
            <!-- Sağ belge -->
            <rect x="30" y="-10" width="35" height="45" rx="4" fill="#FFFFFF" opacity="0.9"/>
            <rect x="35" y="-5" width="25" height="4" rx="2" fill="#F59E0B"/>
            <rect x="35" y="4" width="20" height="2" rx="1" fill="#E5E7EB"/>
            <rect x="35" y="10" width="23" height="2" rx="1" fill="#E5E7EB"/>
            <rect x="35" y="16" width="18" height="2" rx="1" fill="#E5E7EB"/>
        </g>
        
        <!-- Merkez yıldız aksan -->
        <g transform="translate(0, -20)">
            <path d="M 0 -8 L 2 -2 L 8 0 L 2 2 L 0 8 L -2 2 L -8 0 L -2 -2 Z" 
                  fill="#FFFFFF" 
                  opacity="0.8"/>
        </g>
    </g>
    
    <!-- Köşe vurguları -->
    <circle cx="80" cy="80" r="3" fill="#FFFFFF" opacity="0.6"/>
    <circle cx="376" cy="80" r="3" fill="#FFFFFF" opacity="0.6"/>
    <circle cx="80" cy="376" r="3" fill="#FFFFFF" opacity="0.6"/>
    <circle cx="376" cy="376" r="3" fill="#FFFFFF" opacity="0.6"/>
</svg>